<svg width="825" height="825" viewBox="0 0 825 825" fill="none" xmlns="http://www.w3.org/2000/svg">
<g clip-path="url(#clip0_41_2)">
<path d="M0 412.5V675C0 757.843 67.1573 825 150 825H412.5H675C757.843 825 825 757.843 825 675V412.5V150C825 67.1573 757.843 -1.78814e-05 675 -1.78814e-05H412.5H150C67.1573 -1.78814e-05 0 67.1573 0 150V412.5ZM286.275 292.875L291.746 307.578C293.35 311.889 298.78 313.247 302.225 310.2V310.2C306.075 306.625 311.575 301.125 314.325 297.55C323.95 286 327.25 289.575 327.25 311.3V314.57C327.25 320.732 334.667 323.856 339.075 319.55V319.55C352.825 306.075 356.675 305.25 359.15 315.425C362.45 332.2 365.2 335.5 374.825 335.5C385.275 335.5 408.375 328.075 425.975 319.275C436.975 313.5 446.05 313.5 437.25 319C426.25 326.15 391.325 338.8 379.5 340.175C363 342.1 358.6 339.075 356.125 324.225V324.225C355.275 319.492 349.597 317.484 345.96 320.63L339.9 325.875V325.875C330.035 334.379 321.779 329.939 321.75 316.915C321.75 316.785 321.75 316.655 321.75 316.525V316.525C321.75 309.871 313.736 306.504 308.983 311.161L308 312.125C306.954 313.171 305.924 314.179 304.925 315.137C297.794 321.972 291.239 319.757 287.554 310.592C286.538 308.065 285.453 305.325 284.35 302.5L280.556 292.337C279.474 289.439 275.258 289.828 274.725 292.875V292.875C271.975 307.175 265.1 377.85 261.25 429C257.675 475.75 249.7 518.925 242.275 530.75C238.15 536.8 236.775 533.5 234.3 512.6L234.225 511.95C233.861 508.817 229.364 508.672 228.8 511.775V511.775C226.875 521.675 225.5 532.95 225.5 536.525C225.5 540.1 224.4 544.775 223.025 546.975C219.725 551.925 214.775 534.325 214.225 517C213.675 488.95 210.65 490.6 202.4 523.6C198.275 541.2 193.6 555.5 192.225 555.5C190.85 555.5 189.75 539 189.475 518.925V514.393C189.475 510.387 183.707 509.782 182.875 513.7V513.7C179.3 530.75 175.725 546.975 174.625 549.45C171.6 557.7 167.75 547.25 167.75 529.375C167.75 520.3 166.925 507.925 165.825 502.15C164.175 491.975 163.9 492.525 159.225 515.625C154.825 537.625 150.7 547.525 147.4 544.225C146.575 543.4 144.375 531.575 142.725 517.55L140.477 501.817C140.027 498.662 135.881 497.792 134.2 500.5V500.5C129.25 508.75 114.4 519.75 108.075 519.75C101.2 519.75 104.775 515.35 114.125 511.775C124.3 508.2 134.75 493.35 138.875 477.125L139.235 475.773C139.747 473.854 142.464 473.837 143 475.75V475.75C144.375 479.6 145.475 490.05 145.75 499.125C146.025 508.2 147.125 519.2 148.225 523.875C150.15 531.3 150.7 530.2 154.55 512.875C157.025 502.15 159.775 484.55 160.875 473.55C161.975 462.825 163.9 453.75 165 453.75C166.375 453.75 168.025 465.85 169.125 480.425C172.7 532.675 173.8 533.5 182.6 489.775C187 468.6 191.675 451 192.775 451C194.15 451 195.525 468.6 195.8 490.05L195.84 491.949C195.95 497.198 203.481 497.93 204.6 492.8V492.8C209 473 213.675 456.5 215.05 456.5C216.15 456.5 217.525 469.15 217.525 484.55C217.8 500.225 218.625 516.45 219.725 521.125C221.375 528.275 221.925 527.45 223.85 513.15C226.6 492.525 233.2 470.25 236.5 470.25C238.15 470.25 239.25 481.25 239.25 495.55C239.525 550.55 251.35 492.525 258.5 401.5C265.925 309.375 270.875 269.5 275 269.5C276.375 269.5 281.325 279.95 286.275 292.875ZM385 401.5C392.15 408.65 391.875 415.525 384.45 424.875L382.362 427.559C381.197 429.057 382.626 431.171 384.45 430.65V430.65C388.3 429.275 390.5 429.825 390.5 431.75C390.5 437.525 382.8 437.525 371.525 431.475C354.2 422.675 350.075 411.675 360.25 401.5C363.275 398.475 368.775 396 372.625 396C376.475 396 381.975 398.475 385 401.5ZM413.05 408.925C413.6 419.1 414.975 422.4 419.1 422.95C425.7 424.325 429 419.1 429 406.175C429 400.675 430.375 396 431.75 396C435.325 396 435.325 416.9 431.75 423.775C428.45 429.825 415.525 430.925 410.3 425.7C406.45 421.85 405.9 396 409.475 396C411.125 396 412.5 401.775 413.05 408.925ZM459.25 412.5C459.25 425.425 458.425 429 455.125 429C451.825 429 451 425.425 451 412.5C451 399.575 451.825 396 455.125 396C458.425 396 459.25 399.575 459.25 412.5ZM498.85 397.65C506.275 400.4 503.8 404.25 495.55 402.6C486.2 400.675 480.425 406.45 481.8 415.8C482.625 421.3 484.275 422.125 493.075 421.85C503.525 421.575 506.275 426.8 496.65 428.45C483.175 431.2 470.8 420.75 474.375 409.75C477.95 398.2 487.85 393.525 498.85 397.65ZM525.25 402.875C525.25 411.675 527.175 411.4 536.8 402.325C537.579 401.598 538.368 400.91 539.141 400.28C543.35 396.848 546.043 399.772 542.025 403.425V403.425C534.6 409.75 534.875 411.95 543.675 421.3C552.475 430.375 546.7 432.025 537.35 423.225C531.025 417.175 525.25 418 525.25 425.15C525.25 427.35 524.15 429 522.5 429C520.85 429 519.75 421.575 519.75 412.5C519.75 403.425 520.85 396 522.5 396C524.15 396 525.25 399.025 525.25 402.875ZM576.4 406.175L578.621 408.732C581.051 411.531 585.653 409.88 585.75 406.175V406.175C585.75 400.675 587.125 396 588.5 396C590.15 396 591.25 403.425 591.25 412.5C591.25 421.575 590.425 429 589.325 429C587.95 429 583.275 424.325 578.325 418.825L576.081 416.161C573.789 413.438 569.346 414.992 569.25 418.55V418.55C569.25 424.325 568.15 429 566.5 429C564.85 429 563.75 421.575 563.75 412.5C563.75 403.425 564.575 396 565.4 396C566.5 396 571.45 400.675 576.4 406.175ZM638 401.5C644.6 408.1 644.875 414.7 639.1 422.95C630.3 435.6 607.75 427.9 607.75 412.225C607.75 397.65 627.275 390.775 638 401.5ZM682 398.75C682 400.125 679.525 401.5 676.5 401.5C671.825 401.5 671 403.425 671 415.25C671 422.675 669.9 429 668.25 429C666.875 429 665.5 422.675 665.5 415.25C665.5 403.425 664.675 401.5 660 401.5C656.975 401.5 654.5 400.125 654.5 398.75C654.5 397.1 660.825 396 668.25 396C675.95 396 682 397.1 682 398.75ZM720.5 398.475C720.5 400.125 716.65 401.5 711.7 402.05C700.15 403.15 697.95 409.75 709.225 409.75C719.4 409.75 720.775 414.425 710.875 415.8C700.7 416.9 701.25 421.85 711.7 422.95C724.9 424.325 722.425 429 708.125 429V429C701.29 429 695.75 423.46 695.75 416.625V412.5V408.375C695.75 401.54 701.29 396 708.125 396V396C715 396 720.5 397.1 720.5 398.475Z" fill="black"/>
<path d="M366.3 403.975C364.1 405.35 363 409.75 363.55 414.15C364.1 420.475 366.025 422.4 371.8 422.95C377.025 423.5 380.05 422.125 382.25 418.275C388.025 407.275 376.75 397.1 366.3 403.975Z" fill="black"/>
<path d="M617.65 405.9C612.15 411.125 612.15 416.35 617.1 420.75C623.425 425.975 633.875 422.95 634.7 415.8C636.625 403.7 625.9 397.375 617.65 405.9Z" fill="black"/>
</g>
<defs>
<clipPath id="clip0_41_2">
<rect width="825" height="825" rx="412.5" fill="white"/>
</clipPath>
</defs>
</svg>
